<?xml version="1.0" encoding="UTF-8" standalone="no"?>
<!-- Created with Inkscape (http://www.inkscape.org/) -->

<svg
   xmlns:dc="http://purl.org/dc/elements/1.1/"
   xmlns:cc="http://creativecommons.org/ns#"
   xmlns:rdf="http://www.w3.org/1999/02/22-rdf-syntax-ns#"
   xmlns:svg="http://www.w3.org/2000/svg"
   xmlns="http://www.w3.org/2000/svg"
   xmlns:xlink="http://www.w3.org/1999/xlink"
   xmlns:sodipodi="http://sodipodi.sourceforge.net/DTD/sodipodi-0.dtd"
   xmlns:inkscape="http://www.inkscape.org/namespaces/inkscape"
   width="744.09448819"
   height="1052.3622047"
   id="svg2"
   version="1.1"
   inkscape:version="0.48.1 r9760"
   sodipodi:docname="New document 1">
  <defs
     id="defs4">
    <linearGradient
       id="linearGradient4175">
      <stop
         style="stop-color:#006680;stop-opacity:1;"
         offset="0"
         id="stop4177" />
      <stop
         style="stop-color:#21b4da;stop-opacity:1;"
         offset="1"
         id="stop4179" />
    </linearGradient>
    <linearGradient
       inkscape:collect="always"
       xlink:href="#linearGradient4175"
       id="linearGradient4181"
       x1="208.58482"
       y1="292.37054"
       x2="515.72766"
       y2="620.94196"
       gradientUnits="userSpaceOnUse" />
  </defs>
  <sodipodi:namedview
     id="base"
     pagecolor="#ffffff"
     bordercolor="#666666"
     borderopacity="1.0"
     inkscape:pageopacity="0.0"
     inkscape:pageshadow="2"
     inkscape:zoom="0.7"
     inkscape:cx="102.01114"
     inkscape:cy="651.06704"
     inkscape:document-units="px"
     inkscape:current-layer="layer1"
     showgrid="false"
     inkscape:snap-bbox="true"
     inkscape:object-nodes="true"
     inkscape:bbox-nodes="true"
     inkscape:snap-bbox-edge-midpoints="true"
     inkscape:bbox-paths="true"
     inkscape:window-width="1366"
     inkscape:window-height="711"
     inkscape:window-x="0"
     inkscape:window-y="0"
     inkscape:window-maximized="1" />
  <metadata
     id="metadata7">
    <rdf:RDF>
      <cc:Work
         rdf:about="">
        <dc:format>image/svg+xml</dc:format>
        <dc:type
           rdf:resource="http://purl.org/dc/dcmitype/StillImage" />
        <dc:title></dc:title>
      </cc:Work>
    </rdf:RDF>
  </metadata>
  <g
     inkscape:label="Layer 1"
     inkscape:groupmode="layer"
     id="layer1">
    <rect
       style="fill:url(#linearGradient4181);fill-opacity:1;stroke:none"
       id="rect4173"
       width="540"
       height="600"
       x="67.15625"
       y="116.65625" />
    <path
       style="opacity:1;fill:#004455;fill-opacity:1;stroke:none"
       d="M 187.15625 536.65625 L 187.15625 596.65625 L 127.15625 596.65625 L 127.15625 656.65625 L 127.15625 716.65625 L 187.15625 716.65625 L 247.15625 716.65625 L 307.15625 716.65625 L 367.15625 716.65625 L 427.15625 716.65625 L 487.15625 716.65625 L 547.15625 716.65625 L 547.15625 656.65625 L 547.15625 596.65625 L 487.15625 596.65625 L 487.15625 536.65625 L 427.15625 536.65625 L 367.15625 536.65625 L 307.15625 536.65625 L 247.15625 536.65625 L 187.15625 536.65625 z "
       id="rect2987-3" />
    <rect
       style="fill:#f4eed7;fill-opacity:1;stroke:none"
       id="rect2987-3-3-6"
       width="60"
       height="60"
       x="247.14285"
       y="476.64789" />
    <path
       style="fill:#e9ddaf;fill-opacity:1;stroke:none"
       d="M 307.15625 476.65625 L 307.15625 536.65625 L 367.15625 536.65625 L 427.15625 536.65625 L 427.15625 476.65625 L 367.15625 476.65625 L 307.15625 476.65625 z "
       id="rect2987-3-9-6-8" />
    <path
       style="fill:#e5e1d0;fill-opacity:1;stroke:none"
       d="M 247.15625 356.65625 L 247.15625 416.65625 L 247.15625 476.65625 L 307.15625 476.65625 L 367.15625 476.65625 L 427.15625 476.65625 L 487.15625 476.65625 L 487.15625 416.65625 L 427.15625 416.65625 L 367.15625 416.65625 L 307.15625 416.65625 L 307.15625 356.65625 L 247.15625 356.65625 z "
       id="rect2987-3-3-6-5" />
    <path
       style="fill:#f4eed7;fill-opacity:1;stroke:none"
       d="M 307.15625 296.65625 L 307.15625 356.65625 L 307.15625 416.65625 L 367.15625 416.65625 L 427.15625 416.65625 L 487.15625 416.65625 L 487.15625 356.65625 L 487.15625 296.65625 L 427.15625 296.65625 L 367.15625 296.65625 L 307.15625 296.65625 z "
       id="rect2987-3-9-6-8-8" />
    <path
       style="fill:#000000;fill-opacity:1;stroke:none"
       d="M 247.15625 236.65625 L 247.15625 296.65625 L 247.15625 356.65625 L 307.15625 356.65625 L 307.15625 296.65625 L 367.15625 296.65625 L 427.15625 296.65625 L 487.15625 296.65625 L 487.15625 236.65625 L 427.15625 236.65625 L 367.15625 236.65625 L 307.15625 236.65625 L 247.15625 236.65625 z "
       id="rect2987-3-3-6-58-2" />
  </g>
</svg>
